<svg width="207" height="87" viewBox="0 0 207 87" fill="none" xmlns="http://www.w3.org/2000/svg">
<path d="M34.6904 46.0348C42.3815 43.7274 50.0727 42.5097 52.9569 42.1892L101.507 0.849335C101.988 0.208407 103.334 -0.688893 104.872 0.849335C106.41 2.38756 121.536 14.9498 128.907 21.0386V14.7895H136.598V27.7683C143.488 32.7355 158.614 43.2467 163.998 45.5541C170.727 48.4383 185.629 52.7645 187.552 52.7645C189.09 52.7645 188.193 53.4054 187.552 53.7259C181.303 53.5657 167.074 52.4761 160.152 49.3996C151.5 45.5541 134.675 36.4208 126.503 29.2104C119.966 23.4421 108.718 14.6293 103.911 10.944C103.59 10.4633 102.661 9.79028 101.507 10.944C100.354 12.0976 77.3121 30.973 65.9357 40.2664C64.814 41.2278 63.2438 43.1506 65.9357 43.1506C69.3005 43.1506 87.0863 44.5927 91.4126 45.5541C95.7388 46.5155 118.332 53.2452 119.774 54.2066C120.927 54.9757 119.934 55.4885 119.293 55.6487C113.364 54.2066 100.354 51.1302 95.7388 50.361C89.9705 49.3996 66.4164 47.4769 53.9183 48.4383C41.4201 49.3996 26.5186 53.2452 20.2695 55.6487C17.6767 56.6459 18.4199 55.6968 20.3397 54.1478C21.7844 52.8176 24.0785 51.0256 26.9993 49.3615C29.2304 48.0903 31.8271 46.8938 34.6904 46.0348Z" fill="#061845"/>
<path d="M102.469 23.4421H95.7388V30.1718H102.469V23.4421Z" fill="#061845"/>
<path d="M103.911 30.1718V23.4421H110.16V30.1718H103.911Z" fill="#061845"/>
<path d="M103.911 38.8243V32.5753H110.16V38.8243H103.911Z" fill="#061845"/>
<path d="M102.469 38.8243V32.5753H95.7388V38.8243H102.469Z" fill="#061845"/>
<path d="M12.4104 58.6077H16.4682V79.9038H12.8547L12.677 77.2381C11.818 79.0152 10.0705 80.2 7.78982 80.2C3.85048 80.2 1.45134 77.3566 1.45134 72.5286C1.45134 67.6711 3.8801 64.7981 7.78982 64.7981C9.95202 64.7981 11.5514 65.8643 12.4104 67.4934V58.6077ZM9.00421 77.09C10.9294 77.09 12.2031 75.7867 12.4104 73.358V71.6401C12.2031 69.2705 10.9591 67.9081 9.00421 67.9081C6.84201 67.9081 5.53877 69.4779 5.53877 72.499C5.53877 75.5202 6.84201 77.09 9.00421 77.09ZM34.2961 77.4454C34.6516 77.4454 35.007 77.4158 35.3032 77.3269L35.007 79.7853C34.4739 80.0519 33.8222 80.2 33.0818 80.2C31.3046 80.2 30.0902 79.578 29.6756 77.9786C28.787 79.4299 26.921 80.2 24.433 80.2C21.6192 80.2 19.842 78.8967 19.842 76.4087C19.842 74.0984 21.6488 72.4694 25.6177 71.7289L29.172 71.0477V70.3368C29.172 68.767 28.2538 67.76 26.6544 67.76C24.9365 67.76 23.6925 68.4116 23.2482 70.2776L20.0197 68.9151C20.6417 66.3975 22.8632 64.7981 26.4767 64.7981C30.5938 64.7981 33.2002 66.5752 33.2002 70.248V76.3199C33.2002 77.09 33.526 77.4454 34.2961 77.4454ZM25.7066 77.4454C27.2468 77.4454 29.172 76.6457 29.172 75.0759V73.5357L26.0028 74.2465C24.6996 74.5427 24.0183 75.0166 24.0183 75.9941C24.0183 76.9419 24.6403 77.4454 25.7066 77.4454ZM46.9046 65.0942H51.1105L45.4829 79.9038H40.8031L35.1755 65.0942H39.5295L43.1726 77.0604L46.9046 65.0942ZM66.5763 77.4454C66.9318 77.4454 67.2872 77.4158 67.5834 77.3269L67.2872 79.7853C66.754 80.0519 66.1024 80.2 65.362 80.2C63.5848 80.2 62.3704 79.578 61.9558 77.9786C61.0672 79.4299 59.2012 80.2 56.7132 80.2C53.8994 80.2 52.1222 78.8967 52.1222 76.4087C52.1222 74.0984 53.929 72.4694 57.8979 71.7289L61.4522 71.0477V70.3368C61.4522 68.767 60.534 67.76 58.9346 67.76C57.2167 67.76 55.9727 68.4116 55.5284 70.2776L52.2999 68.9151C52.9219 66.3975 55.1434 64.7981 58.7569 64.7981C62.8739 64.7981 65.4804 66.5752 65.4804 70.248V76.3199C65.4804 77.09 65.8062 77.4454 66.5763 77.4454ZM57.9868 77.4454C59.527 77.4454 61.4522 76.6457 61.4522 75.0759V73.5357L58.283 74.2465C56.9797 74.5427 56.2985 75.0166 56.2985 75.9941C56.2985 76.9419 56.9205 77.4454 57.9868 77.4454ZM76.8028 64.7981C81.5715 64.7981 84.3853 67.6711 84.3853 72.499C84.3853 77.3269 81.5715 80.2 76.8028 80.2C72.0341 80.2 69.2203 77.3269 69.2203 72.499C69.2203 67.6711 72.0341 64.7981 76.8028 64.7981ZM76.8028 67.8192C74.5221 67.8192 73.2781 69.3594 73.2781 72.499C73.2781 75.6386 74.5221 77.1788 76.8028 77.1788C79.0835 77.1788 80.3275 75.6386 80.3275 72.499C80.3275 69.3594 79.0835 67.8192 76.8028 67.8192Z" fill="#061845"/>
<path d="M91.2722 58.4299V75.5794C91.2722 77.0307 91.6276 77.5343 92.8124 77.5343C93.5529 77.5343 93.9971 77.4454 94.7672 77.1492L94.4118 79.6965C93.7602 80.0223 92.8124 80.2 91.9534 80.2C89.3173 80.2 88.1029 78.8967 88.1029 76.0237V58.4299H91.2722ZM110.659 72.0547C110.659 72.6175 110.599 73.2987 110.54 73.6838H99.6995C100.055 76.2903 101.595 77.6824 103.994 77.6824C105.949 77.6824 107.252 76.9715 107.726 75.6683L110.362 76.7642C109.296 78.956 107.252 80.2 103.994 80.2C99.3145 80.2 96.5599 77.3269 96.5599 72.499C96.5599 67.6711 99.1664 64.7981 103.787 64.7981C108.23 64.7981 110.659 67.76 110.659 72.0547ZM103.787 67.3157C101.447 67.3157 100.055 68.7078 99.7291 71.255H107.697C107.4 68.767 106.008 67.3157 103.787 67.3157ZM127.425 77.8305C127.81 77.8305 128.195 77.8008 128.521 77.712L128.313 79.8446C127.839 80.0519 127.217 80.2 126.477 80.2C124.877 80.2 123.781 79.6076 123.456 77.9786C122.537 79.4003 120.642 80.2 118.45 80.2C115.666 80.2 113.622 78.8967 113.622 76.3199C113.622 74.0392 115.518 72.3509 119.398 71.6697L123.159 70.9884V70.2183C123.159 68.4412 122.064 67.2861 120.138 67.2861C118.302 67.2861 116.939 68.0858 116.317 69.9518L113.859 68.6485C114.57 66.3086 116.851 64.7981 120.079 64.7981C123.781 64.7981 126.329 66.4863 126.329 70.0406V76.7345C126.329 77.475 126.625 77.8305 127.425 77.8305ZM119.131 77.8008C121.116 77.8008 123.159 76.7642 123.159 74.987V73.2099L119.931 73.8615C117.917 74.2465 116.91 74.9278 116.91 76.1125C116.91 77.2085 117.739 77.8008 119.131 77.8008ZM136.882 80.2C134.009 80.2 131.521 79.2522 130.277 77.09L132.41 75.2536C133.18 77.0307 134.927 77.712 137.001 77.712C139.104 77.712 140.17 76.9419 140.17 75.9348C140.17 75.0166 139.311 74.4835 136.734 73.98C132.321 73.1506 130.781 71.877 130.781 69.389C130.781 66.9899 133.032 64.7981 137.001 64.7981C140.289 64.7981 142.155 65.8643 143.221 68.145L140.97 69.8037C140.229 68.0265 138.956 67.2861 137.03 67.2861C135.194 67.2861 133.95 68.1746 133.95 69.0928C133.95 70.1591 134.809 70.7219 137.593 71.2254C141.829 71.9955 143.339 73.2691 143.339 75.7275C143.339 78.334 140.97 80.2 136.882 80.2ZM160.409 72.0547C160.409 72.6175 160.35 73.2987 160.291 73.6838H149.45C149.806 76.2903 151.346 77.6824 153.745 77.6824C155.7 77.6824 157.003 76.9715 157.477 75.6683L160.113 76.7642C159.047 78.956 157.003 80.2 153.745 80.2C149.065 80.2 146.311 77.3269 146.311 72.499C146.311 67.6711 148.917 64.7981 153.538 64.7981C157.981 64.7981 160.409 67.76 160.409 72.0547ZM153.538 67.3157C151.198 67.3157 149.806 68.7078 149.48 71.255H157.448C157.151 68.767 155.759 67.3157 153.538 67.3157ZM165.979 75.9052C167.342 75.9052 168.201 76.7345 168.201 78.0378C168.201 79.341 167.342 80.2 165.979 80.2C164.617 80.2 163.728 79.341 163.728 78.0378C163.728 76.7345 164.617 75.9052 165.979 75.9052ZM180.447 64.7981C184.475 64.7981 186.992 67.6415 186.992 72.4694C186.992 77.3269 184.445 80.2 180.417 80.2C178.225 80.2 176.537 79.1337 175.648 77.5046V86.1238H172.479V65.0942H175.263L175.411 67.8192C176.27 66.0124 178.077 64.7981 180.447 64.7981ZM179.736 77.6231C182.283 77.6231 183.823 75.7275 183.823 72.499C183.823 69.2705 182.283 67.3453 179.736 67.3453C177.248 67.3453 175.648 69.2113 175.648 72.3213V72.6767C175.648 75.7571 177.248 77.6231 179.736 77.6231ZM199.074 64.7981C202.214 64.7981 204.643 66.6048 204.643 70.3072V79.9038H201.473V71.3143C201.473 68.382 200.111 67.4045 198.304 67.4045C196.349 67.4045 194.276 68.6782 194.276 72.0844V79.9038H191.107V58.4299H194.276V67.4638C195.253 65.6274 197.001 64.7981 199.074 64.7981Z" fill="#176EFC"/>
</svg>
