<svg width="231" height="26" viewBox="0 0 231 26" fill="none" xmlns="http://www.w3.org/2000/svg">
<path d="M7.38188 21.1181C10.9101 20.0596 14.4384 19.5009 15.7615 19.3539L38.0335 0.389625C38.254 0.0956049 38.8715 -0.316024 39.5771 0.389625C40.2827 1.09527 47.2216 6.85807 50.6029 9.65126V6.78456H54.1311V12.7385C57.2918 15.0171 64.2307 19.8391 66.7005 20.8975C69.7877 22.2206 76.6237 24.2053 77.5057 24.2053C78.2114 24.2053 77.7997 24.4993 77.5057 24.6463C74.639 24.5728 68.1118 24.073 64.9363 22.6617C60.9671 20.8975 53.249 16.7078 49.5003 13.4C46.5013 10.7538 41.3412 6.71106 39.1361 5.02044C38.9891 4.79993 38.5627 4.49121 38.0335 5.02044C37.5043 5.54968 26.9342 14.2086 21.7154 18.4719C21.2008 18.9129 20.4805 19.795 21.7154 19.795C23.259 19.795 31.418 20.4565 33.4027 20.8975C35.3873 21.3386 45.7515 24.4258 46.4131 24.8668C46.9423 25.2196 46.4866 25.4549 46.1926 25.5284C43.4729 24.8668 37.5043 23.4555 35.3873 23.1027C32.7411 22.6617 21.9359 21.7796 16.2025 22.2206C10.4691 22.6617 3.63312 24.4258 0.766419 25.5284C-0.423018 25.9858 -0.0820811 25.5504 0.798618 24.8398C1.46138 24.2296 2.51375 23.4075 3.85363 22.6441C4.87713 22.061 6.06838 21.5121 7.38188 21.1181Z" fill="white"/>
<path d="M38.4745 10.7538H35.3873V13.8411H38.4745V10.7538Z" fill="white"/>
<path d="M39.1361 13.8411V10.7538H42.0028V13.8411H39.1361Z" fill="white"/>
<path d="M39.1361 17.8103V14.9436H42.0028V17.8103H39.1361Z" fill="white"/>
<path d="M38.4745 17.8103V14.9436H35.3873V17.8103H38.4745Z" fill="white"/>
<path d="M94.6219 4.98327H97.4562V19.8582H94.9322L94.8081 17.9962C94.2081 19.2375 92.9875 20.065 91.3945 20.065C88.643 20.065 86.9672 18.079 86.9672 14.7068C86.9672 11.3139 88.6637 9.30712 91.3945 9.30712C92.9048 9.30712 94.0219 10.0519 94.6219 11.1898V4.98327ZM92.2427 17.8928C93.5875 17.8928 94.4771 16.9825 94.6219 15.286V14.0861C94.4771 12.4311 93.6082 11.4794 92.2427 11.4794C90.7325 11.4794 89.8222 12.5759 89.8222 14.6861C89.8222 16.7963 90.7325 17.8928 92.2427 17.8928ZM109.909 18.141C110.157 18.141 110.405 18.1203 110.612 18.0583L110.405 19.7754C110.033 19.9616 109.578 20.065 109.06 20.065C107.819 20.065 106.971 19.6306 106.681 18.5134C106.061 19.5271 104.757 20.065 103.019 20.065C101.054 20.065 99.8127 19.1548 99.8127 17.4169C99.8127 15.8032 101.075 14.6654 103.847 14.1482L106.33 13.6724V13.1758C106.33 12.0794 105.688 11.376 104.571 11.376C103.371 11.376 102.502 11.8311 102.192 13.1345L99.9368 12.1828C100.371 10.4243 101.923 9.30712 104.447 9.30712C107.323 9.30712 109.143 10.5484 109.143 13.1138V17.3549C109.143 17.8928 109.371 18.141 109.909 18.141ZM103.909 18.141C104.985 18.141 106.33 17.5824 106.33 16.486V15.4102L104.116 15.9067C103.206 16.1136 102.73 16.4446 102.73 17.1273C102.73 17.7893 103.164 18.141 103.909 18.141ZM118.715 9.51401H121.653L117.722 19.8582H114.454L110.523 9.51401H113.564L116.109 17.8721L118.715 9.51401ZM132.456 18.141C132.704 18.141 132.952 18.1203 133.159 18.0583L132.952 19.7754C132.58 19.9616 132.125 20.065 131.607 20.065C130.366 20.065 129.518 19.6306 129.228 18.5134C128.608 19.5271 127.304 20.065 125.566 20.065C123.601 20.065 122.36 19.1548 122.36 17.4169C122.36 15.8032 123.622 14.6654 126.394 14.1482L128.877 13.6724V13.1758C128.877 12.0794 128.235 11.376 127.118 11.376C125.918 11.376 125.049 11.8311 124.739 13.1345L122.484 12.1828C122.918 10.4243 124.47 9.30712 126.994 9.30712C129.87 9.30712 131.69 10.5484 131.69 13.1138V17.3549C131.69 17.8928 131.918 18.141 132.456 18.141ZM126.456 18.141C127.532 18.141 128.877 17.5824 128.877 16.486V15.4102L126.663 15.9067C125.753 16.1136 125.277 16.4446 125.277 17.1273C125.277 17.7893 125.711 18.141 126.456 18.141ZM139.599 9.30712C142.929 9.30712 144.895 11.3139 144.895 14.6861C144.895 18.0583 142.929 20.065 139.599 20.065C136.268 20.065 134.302 18.0583 134.302 14.6861C134.302 11.3139 136.268 9.30712 139.599 9.30712ZM139.599 11.4173C138.006 11.4173 137.137 12.4931 137.137 14.6861C137.137 16.879 138.006 17.9548 139.599 17.9548C141.192 17.9548 142.06 16.879 142.06 14.6861C142.06 12.4931 141.192 11.4173 139.599 11.4173Z" fill="white"/>
<path d="M149.705 4.85914V16.8377C149.705 17.8514 149.953 18.2031 150.781 18.2031C151.298 18.2031 151.608 18.141 152.146 17.9341L151.898 19.7133C151.443 19.9409 150.781 20.065 150.181 20.065C148.34 20.065 147.491 19.1548 147.491 17.148V4.85914H149.705ZM163.246 14.3758C163.246 14.7688 163.205 15.2447 163.163 15.5136H155.591C155.84 17.3342 156.915 18.3065 158.591 18.3065C159.957 18.3065 160.867 17.81 161.198 16.8997L163.039 17.6652C162.294 19.1961 160.867 20.065 158.591 20.065C155.322 20.065 153.398 18.0583 153.398 14.6861C153.398 11.3139 155.219 9.30712 158.446 9.30712C161.55 9.30712 163.246 11.376 163.246 14.3758ZM158.446 11.0656C156.812 11.0656 155.84 12.038 155.612 13.8172H161.177C160.97 12.0794 159.998 11.0656 158.446 11.0656ZM174.957 18.41C175.226 18.41 175.495 18.3893 175.722 18.3272L175.577 19.8168C175.246 19.9616 174.812 20.065 174.295 20.065C173.178 20.065 172.412 19.6513 172.185 18.5134C171.543 19.5065 170.219 20.065 168.688 20.065C166.744 20.065 165.316 19.1548 165.316 17.3549C165.316 15.7619 166.64 14.5826 169.35 14.1068L171.978 13.631V13.0931C171.978 11.8518 171.212 11.0449 169.867 11.0449C168.585 11.0449 167.633 11.6035 167.199 12.9069L165.482 11.9966C165.978 10.3622 167.571 9.30712 169.826 9.30712C172.412 9.30712 174.191 10.4864 174.191 12.969V17.6445C174.191 18.1617 174.398 18.41 174.957 18.41ZM169.164 18.3893C170.55 18.3893 171.978 17.6652 171.978 16.4239V15.1826L169.723 15.6377C168.316 15.9067 167.612 16.3825 167.612 17.2101C167.612 17.9755 168.192 18.3893 169.164 18.3893ZM181.563 20.065C179.556 20.065 177.818 19.403 176.949 17.8928L178.439 16.6101C178.977 17.8514 180.197 18.3272 181.646 18.3272C183.114 18.3272 183.859 17.7893 183.859 17.0859C183.859 16.4446 183.259 16.0722 181.459 15.7205C178.377 15.1412 177.301 14.2516 177.301 12.5138C177.301 10.8381 178.873 9.30712 181.646 9.30712C183.942 9.30712 185.245 10.0519 185.99 11.6449L184.418 12.8034C183.901 11.5621 183.011 11.0449 181.666 11.0449C180.384 11.0449 179.515 11.6656 179.515 12.3069C179.515 13.0517 180.115 13.4448 182.059 13.7965C185.018 14.3344 186.073 15.224 186.073 16.9411C186.073 18.7617 184.418 20.065 181.563 20.065ZM197.996 14.3758C197.996 14.7688 197.955 15.2447 197.913 15.5136H190.341C190.59 17.3342 191.665 18.3065 193.341 18.3065C194.707 18.3065 195.617 17.81 195.948 16.8997L197.789 17.6652C197.044 19.1961 195.617 20.065 193.341 20.065C190.072 20.065 188.148 18.0583 188.148 14.6861C188.148 11.3139 189.969 9.30712 193.196 9.30712C196.3 9.30712 197.996 11.376 197.996 14.3758ZM193.196 11.0656C191.562 11.0656 190.59 12.038 190.362 13.8172H195.927C195.72 12.0794 194.748 11.0656 193.196 11.0656ZM201.886 17.0652C202.838 17.0652 203.438 17.6445 203.438 18.5548C203.438 19.4651 202.838 20.065 201.886 20.065C200.935 20.065 200.314 19.4651 200.314 18.5548C200.314 17.6445 200.935 17.0652 201.886 17.0652ZM211.991 9.30712C214.805 9.30712 216.564 11.2932 216.564 14.6654C216.564 18.0583 214.784 20.065 211.971 20.065C210.44 20.065 209.261 19.3203 208.64 18.1824V24.2027H206.426V9.51401H208.371L208.474 11.4173C209.074 10.1553 210.336 9.30712 211.991 9.30712ZM211.495 18.2652C213.274 18.2652 214.35 16.9411 214.35 14.6861C214.35 12.4311 213.274 11.0863 211.495 11.0863C209.757 11.0863 208.64 12.3897 208.64 14.562V14.8102C208.64 16.9618 209.757 18.2652 211.495 18.2652ZM225.002 9.30712C227.195 9.30712 228.892 10.5691 228.892 13.1551V19.8582H226.678V13.8585C226.678 11.8104 225.727 11.1277 224.465 11.1277C223.099 11.1277 221.651 12.0173 221.651 14.3964V19.8582H219.437V4.85914H221.651V11.1691C222.334 9.8864 223.554 9.30712 225.002 9.30712Z" fill="#83C7FF"/>
</svg>
